<svg width="119" height="39" viewBox="0 0 119 39" fill="none" xmlns="http://www.w3.org/2000/svg">
<path d="M47.2644 29.6562L54.4533 9.03239H59.6682L66.8276 29.6562H62.6144L57.0754 12.8331H57.0165L51.4186 29.6562H47.2644ZM50.5937 24.5592L51.6543 21.4362H62.143L63.1742 24.5592H50.5937ZM72.2598 29.6562L65.0709 9.03239H69.3135L74.9703 26.1502H74.9998L80.6566 9.03239H84.8698L77.7103 29.6562H72.2598ZM93.2095 30.0098C91.7168 30.0098 90.3811 29.7545 89.2026 29.2438C88.0438 28.7331 87.1304 27.9867 86.4626 27.0046C85.7948 26.0225 85.4412 24.8342 85.4019 23.4396H89.6151C89.6347 24.0485 89.7919 24.5985 90.0865 25.0895C90.3811 25.5806 90.7838 25.9734 91.2945 26.268C91.8248 26.543 92.4632 26.6805 93.2095 26.6805C93.8184 26.6805 94.3488 26.5823 94.8005 26.3859C95.2719 26.1895 95.6353 25.9047 95.8906 25.5315C96.1656 25.1583 96.3031 24.7065 96.3031 24.1762C96.3031 23.5869 96.1558 23.0959 95.8612 22.7031C95.5666 22.2906 95.1639 21.9469 94.6532 21.6719C94.1425 21.3969 93.5533 21.1514 92.8855 20.9353C92.2373 20.6996 91.5596 20.4639 90.8525 20.2282C89.2419 19.6782 88.0045 18.9613 87.1402 18.0774C86.2956 17.1935 85.8733 16.0249 85.8733 14.5714C85.8733 13.3339 86.168 12.2831 86.7572 11.4189C87.3465 10.535 88.1714 9.85734 89.2321 9.38594C90.2927 8.91454 91.5007 8.67884 92.856 8.67884C94.2506 8.67884 95.4683 8.92436 96.5094 9.4154C97.57 9.88681 98.4048 10.5743 99.0137 11.4778C99.6422 12.3813 99.9761 13.442 100.015 14.6598H95.7433C95.7237 14.1884 95.5862 13.7562 95.3309 13.3634C95.0952 12.9509 94.7612 12.6268 94.3291 12.3911C93.897 12.1358 93.3863 12.0081 92.7971 12.0081C92.2864 11.9885 91.815 12.067 91.3829 12.2438C90.9704 12.4206 90.6365 12.6759 90.3811 13.0098C90.1454 13.3438 90.0276 13.7661 90.0276 14.2767C90.0276 14.7678 90.1454 15.1901 90.3811 15.5436C90.6168 15.8775 90.9507 16.1624 91.3829 16.3981C91.815 16.6338 92.3158 16.8596 92.8855 17.0757C93.4747 17.2918 94.1229 17.5176 94.83 17.7533C95.871 18.1069 96.8138 18.5292 97.6584 19.0202C98.5226 19.4916 99.2101 20.1103 99.7208 20.8764C100.251 21.6424 100.516 22.6441 100.516 23.8816C100.516 24.9815 100.231 25.9931 99.6619 26.9162C99.1119 27.8394 98.2968 28.5858 97.2165 29.1554C96.1362 29.725 94.8005 30.0098 93.2095 30.0098ZM103.342 29.6562V9.03239H116.924V12.2438H107.32V17.6355H116.041V20.7291H107.32V26.4448H116.924V29.6562H103.342Z" fill="white"/>
<path d="M0.191406 16.0207C0.191406 7.17272 7.36414 0 16.2121 0V22.1307C16.2121 30.9787 9.03941 38.1514 0.191406 38.1514V16.0207Z" fill="#0D92F2"/>
<path d="M18.5361 8.70553C18.5361 3.8976 22.4337 0 27.2417 0C32.0496 0 35.9472 3.8976 35.9472 8.70553V9.20816C35.9472 14.0161 32.0496 17.9137 27.2417 17.9137C22.4337 17.9137 18.5361 14.0161 18.5361 9.20816V8.70553Z" fill="#4CBFFF"/>
<path d="M18.5361 28.9399C18.5361 24.132 22.4337 20.2344 27.2417 20.2344C32.0496 20.2344 35.9472 24.132 35.9472 28.9399V29.4425C35.9472 34.2505 32.0496 38.1481 27.2417 38.1481C22.4337 38.1481 18.5361 34.2505 18.5361 29.4425V28.9399Z" fill="#702DFF"/>
</svg>
