<svg width="30" height="30" viewBox="0 0 30 30" fill="none" xmlns="http://www.w3.org/2000/svg">
<g id="Frame 1597886961">
<rect width="30" height="30" rx="15" fill="white"/>
<path id="Vector" d="M22 10.4255C21.4484 10.6598 20.8481 10.8284 20.2298 10.8941C20.8717 10.5185 21.3525 9.92521 21.5818 9.22545C20.9794 9.57833 20.3195 9.82578 19.6313 9.95681C19.3437 9.65402 18.9958 9.4128 18.6094 9.24819C18.2229 9.08357 17.8062 8.99909 17.3852 9.00001C15.6816 9.00001 14.3116 10.3598 14.3116 12.0284C14.3116 12.2627 14.3405 12.497 14.3873 12.7225C11.8366 12.5911 9.56159 11.3911 8.04915 9.55385C7.77357 10.0174 7.62916 10.5451 7.63093 11.0823C7.63093 12.1331 8.17354 13.0598 9.00096 13.6047C8.51335 13.5858 8.03715 13.4538 7.6111 13.2195V13.2568C7.6111 14.7284 8.66747 15.9479 10.0754 16.2284C9.81101 16.296 9.53907 16.3306 9.26595 16.3314C9.06586 16.3314 8.87658 16.3118 8.68549 16.2852C9.07487 17.4852 10.2087 18.3568 11.5589 18.3852C10.5026 19.2 9.17943 19.6793 7.7427 19.6793C7.48492 19.6793 7.24697 19.6704 7 19.642C8.36282 20.503 9.97981 21 11.7212 21C17.3744 21 20.4677 16.3882 20.4677 12.3852C20.4677 12.2539 20.4677 12.1225 20.4587 11.9911C21.0572 11.5598 21.5818 11.0254 22 10.4255Z" fill="black"/>
</g>
</svg>
